# AST/ASF file generated using VICON BodyLanguage
# -----------------------------------------------
:version 1.10
:name VICON
:units
  mass 1.0
  length 0.45
  angle deg
:documentation
   .ast/.asf automatically generated from VICON data using
   VICON BodyBuilder and BodyLanguage model FoxedUp or BRILLIANT.MOD
:root
   order TX TY TZ RX RY RZ
   axis XYZ
   position 0 0 0  
   orientation 0 0 0 
:bonedata
  begin
     id 1 
     name lhipjoint
     direction 0.62366 -0.717238 0.310833 
     length 2.53602 
     axis 0 0 0  XYZ
  end
  begin
     id 2 
     name lfemur
     direction 0.34202 -0.939693 0  
     length 7.40817  
     axis 0 0 20  XYZ
    dof rx ry rz
    limits (-160.0 20.0)
           (-70.0 70.0)
           (-60.0 70.0)
  end
  begin
     id 3 
     name ltibia
     direction 0.34202 -0.939693 0   
     length 7.7045   
     axis 0 0 20   XYZ
    dof rx
    limits (-10.0 170.0)
  end
  begin
     id 4 
     name lfoot
     direction 0.0673888 -0.185149 0.980397   
     length 2.09456   
     axis -90 7.62852e-016 20   XYZ
    dof rx rz
    limits (-45.0 90.0)
           (-70.0 20.0)
  end
  begin
     id 5 
     name ltoes
     direction 1.53575e-011 -4.21994e-011 1   
     length 1.05543   
     axis -90 7.62852e-016 20   XYZ
    dof rx
    limits (-90.0 20.0)
  end
  begin
     id 6 
     name rhipjoint
     direction -0.489018 -0.800347 0.346851   
     length 2.27268  
     axis 0 0 0  XYZ 
  end
  begin
     id 7 
     name rfemur
     direction -0.34202 -0.939693 0   
     length 7.55487   
     axis 0 0 -20   XYZ
    dof rx ry rz
    limits (-160.0 20.0)
           (-70.0 70.0)
           (-70.0 60.0)
  end
  begin
     id 8 
     name rtibia
     direction -0.34202 -0.939693 0   
     length 7.78969   
     axis 0 0 -20   XYZ
    dof rx
    limits (-10.0 170.0)
 end
 begin
     id 9 
     name rfoot
     direction -0.0859318 -0.236096 0.967923   
     length 2.19143  
     axis -90 -7.62852e-016 -20   XYZ
    dof rx rz
    limits (-45.0 90.0)
           (-20.0 70.0)
  end
  begin
     id 10 
     name rtoes
     direction -1.53538e-011 -4.21989e-011 1   
     length 1.09845   
     axis -90 -7.62852e-016 -20   XYZ
    dof rx
    limits (-90.0 20.0)
  end
  begin
     id 11 
     name lowerback
     direction -0.00762546 0.998978 -0.0445553   
     length 1.98161   
     axis 0 0 0   XYZ
    dof rx ry rz
    limits (-20.0 45.0)
           (-30.0 30.0)
           (-30.0 30.0)
  end
  begin
     id 12 
     name upperback
     direction 0.0422361 0.998867 -0.0219156   
     length 1.97558   
     axis 0 0 0   XYZ
    dof rx ry rz
    limits (-20.0 45.0)
           (-30.0 30.0)
           (-30.0 30.0)
  end
  begin
     id 13 
     name thorax
     direction 0.0442465 0.999021 7.47603e-005   
     length 1.97799   
     axis 0 0 0   XYZ
    dof rx ry rz
    limits (-20.0 45.0)
           (-30.0 30.0)
           (-30.0 30.0)
  end
  begin
     id 14 
     name lowerneck
     direction 0.00312169 0.984641 0.174564   
     length 1.78995   
     axis 0 0 0   XYZ
    dof rx ry rz
    limits (-20.0 45.0)
           (-30.0 30.0)
           (-30.0 30.0)
  end
  begin
     id 15 
     name upperneck
     direction -0.0383028 0.985255 -0.166749   
     length 1.83053   
     axis 0 0 0   XYZ
    dof rx ry rz
    limits (-20.0 45.0)
           (-30.0 30.0)
           (-30.0 30.0)
  end
  begin
     id 16
     name head
     direction -0.0129546 0.997059 -0.0755386  
     length 1.84088  
     axis 0 0 0   XYZ
    dof rx ry rz
    limits (-20.0 45.0)
           (-30.0 30.0)
           (-30.0 30.0)
  end
  begin
     id 17 
     name lclavicle
     direction 0.912857 0.370519 -0.171488  
     length 3.51279  
     axis 0 0 0   XYZ
    dof ry rz
    limits (-20.0 10.0)
           (0.0 20.0)
  end
  begin
     id 18 
     name lhumerus
     direction 1 -4.48962e-011 3.64361e-027   
     length 4.95663   
     axis 180 -30 -90   XYZ
    dof rx ry rz
    limits (-60.0 90.0)
           (-90.0 90.0)
           (-90.0 90.0)
  end
  begin
     id 19
     name lradius
     direction 1 -4.48974e-011 5.97202e-027   
     length 3.38177   
     axis 180 -30 -90   XYZ
    dof rx
    limits (-10.0 170.0)
  end
  begin
     id 20
     name lwrist
     direction 1 -4.4896e-011 9.83288e-027   
     length 1.69088   
     axis -9.31221e-015 90 90   XYZ
    dof ry
    limits (-180.0 0.0)
 end
  begin
     id 21 
     name lhand
     direction 1 -4.4902e-011 1.96551e-026   
     length 0.662909   
     axis -1.25475e-014 90 90   XYZ
    dof rx rz
    limits (-90.0 90.0)
           (-45.0 45.0)
  end
  begin
     id 22 
     name lfingers
     direction 1 -4.48971e-011 3.93277e-026   
     length 0.534454   
     axis -2.50945e-014 90 90   XYZ
    dof rx
    limits (0.0 90.0)
  end
  begin
     id 23
     name lthumb
     direction 0.707107 -6.34933e-011 0.707107   
     length 0.767373   
     axis -90 45 -4.80359e-014   XYZ
    dof rx rz
    limits (-45.0 45.0)
           (-45.0 45.0)
  end
  begin
     id 24 
     name rclavicle
     direction -0.900919 0.395364 -0.178976   
     length 3.40627  
     axis 0 0 0   XYZ 
    dof ry rz
    limits (-10.0 20.0)
           (-20.0 0.0)
  end
  begin
     id 25 
     name rhumerus
     direction -1 -4.48969e-011 1.03875e-027  
     length 5.08365   
     axis 180 30 90   XYZ
    dof rx ry rz
    limits (-90.0 60.0)
           (-90.0 90.0)
           (-90.0 90.0)
  end
  begin
     id 26 
     name rradius
     direction -1 -4.48951e-011 5.02733e-027   
     length 3.35984   
     axis 180 30 90   XYZ
    dof rx
    limits (-10.0 170.0)
  end
  begin
     id 27 
     name rwrist
     direction -1 -4.49011e-011 9.82828e-027   
     length 1.67992   
     axis -9.31221e-015 -90 -90   XYZ
    dof ry
    limits (-180.0 0.0)
  end
  begin
     id 28
     name rhand
     direction -1 -4.48894e-011 1.96774e-026   
     length 0.820764   
     axis -1.25475e-014 -90 -90   XYZ
    dof rx rz
    limits (-90.0 90.0)
           (-45.0 45.0)
  end
  begin
     id 29
     name rfingers
     direction -1 -4.49095e-011 3.92833e-026   
     length 0.661721   
     axis -2.50945e-014 -90 -90   XYZ
    dof rx
    limits (0.0 90.0)
  end
  begin
     id 30
     name rthumb
     direction -0.707107 -6.34881e-011 0.707107   
     length 0.950103   
     axis -90 -45 4.80359e-014   XYZ
    dof rx rz
    limits (-45.0 45.0)
           (-45.0 45.0)
  end
:hierarchy
  begin
    root lhipjoint rhipjoint lowerback
    lhipjoint lfemur
    lfemur ltibia
    ltibia lfoot
    lfoot ltoes
    rhipjoint rfemur
    rfemur rtibia
    rtibia rfoot
    rfoot rtoes
    lowerback upperback
    upperback thorax
    thorax lowerneck lclavicle rclavicle
    lowerneck upperneck
    upperneck head
    lclavicle lhumerus
    lhumerus lradius
    lradius lwrist
    lwrist lhand lthumb
    lhand lfingers
    rclavicle rhumerus
    rhumerus rradius
    rradius rwrist
    rwrist rhand rthumb
    rhand rfingers
  end

#!OML:ASF I:\golf\golf\golf 2\Subject 1\2002-09-07\Subject1.ASF
:FULLY-SPECIFIED
:DEGREES
93
root -6.66837 17.8689 0.200401 -120.404 85.0014 -137.077
lowerback 2.38507 1.59299 -1.79643
upperback 4.24163 2.17725 5.05881
thorax 2.78245 1.02246 6.27107
lowerneck -14.1165 -3.21971 1.29074
upperneck 41.2246 -1.70282 -3.22168
head 17.4798 -0.265106 -1.81441
rclavicle -2.66371e-014 -2.54444e-014
rhumerus -7.14052 0.905589 -98.8879
rradius 22.814
rwrist -42.4309
rhand -10.3074 -5.80896
rfingers 7.12502
rthumb 15.6876 -35.193
lclavicle -2.66371e-014 -2.54444e-014
lhumerus -13.3882 -51.2886 111.915
lradius 31.2645
lwrist 42.7927
lhand -1.95702 66.9242
lfingers 7.12502
lthumb -156.285 84.5188
rfemur -26.0357 -1.13773 11.1163
rtibia 24.7806
rfoot -7.93546 -14.6127
rtoes -5.33782
lfemur -27.9803 4.3621 -6.52671
ltibia 25.217
lfoot -8.97357 0.981241
ltoes -23.7986
94
root -6.66722 17.87 0.201073 -119.77 85.0318 -136.429
lowerback 2.41507 1.60966 -1.83511
upperback 4.22518 2.19999 5.09077
thorax 2.74343 1.03367 6.32536
lowerneck -14.0912 -3.22701 1.20357
upperneck 41.253 -1.67978 -3.21521
head 17.4927 -0.266279 -1.79144
rclavicle 3.57812e-015 -1.98785e-014
rhumerus -7.54214 2.31026 -98.7868
rradius 23.4951
rwrist -44.0655
rhand -10.4503 -6.02823
rfingers 7.12502
rthumb 15.55 -35.4231
lclavicle 3.57812e-015 -1.98785e-014
lhumerus -13.5765 -51.9356 112.09
lradius 31.6418
lwrist 43.4465
lhand -2.66631 67.4649
lfingers 7.12502
lthumb -156.966 83.8916
rfemur -26.03 -1.09997 11.1269
rtibia 24.7813
rfoot -7.97671 -14.5505
rtoes -5.32347
lfemur -27.9397 4.40848 -6.51594
ltibia 25.2282
lfoot -9.01681 1.00257
ltoes -23.8952
95
root -6.66653 17.8684 0.198899 -119.859 85.0402 -136.471
lowerback 2.45468 1.66184 -1.74583
upperback 4.24187 2.27072 5.05601
thorax 2.73386 1.07232 6.23552
lowerneck -14.087 -3.26729 1.18928
upperneck 41.2116 -1.75154 -3.18931
head 17.4655 -0.294993 -1.78863
rclavicle 3.26007e-014 5.56597e-014
rhumerus -7.12477 0.484193 -98.8601
rradius 22.8006
rwrist -42.7673
rhand -10.0063 -5.84278
rfingers 7.12502
rthumb 15.9776 -35.2038
lclavicle 3.26007e-014 5.56597e-014
lhumerus -13.8669 -52.7285 112.299
lradius 32.0712
lwrist 44.24
lhand -3.26671 68.085
lfingers 7.12502
lthumb -157.542 83.2008
rfemur -25.9789 -1.17781 11.1236
rtibia 24.7815
rfoot -8.08901 -14.4318
rtoes -4.94693
lfemur -27.8932 4.40145 -6.52648
ltibia 25.2437
lfoot -8.99144 1.00165
ltoes -23.6254
96
root -6.66655 17.8665 0.196524 -120.265 85.0177 -136.876
lowerback 2.4685 1.70924 -1.61959
upperback 4.24076 2.33504 5.01546
thorax 2.72279 1.109 6.11887
lowerneck -14.1174 -3.31047 1.17364
upperneck 41.1999 -1.82998 -3.15017
head 17.4646 -0.323611 -1.78208
rclavicle 1.31198e-014 3.97569e-014
rhumerus -6.75347 -1.28413 -98.9301
rradius 22.2381
rwrist -41.5451
rhand -9.6497 -5.70123
rfingers 7.12502
rthumb 16.321 -35.0344
lclavicle 1.31198e-014 3.97569e-014
lhumerus -14.068 -53.2319 112.465
lradius 32.2675
lwrist 44.5916
lhand -3.34536 68.2861
lfingers 7.12502
lthumb -157.618 82.9906
rfemur -25.973 -1.25716 11.1254
rtibia 24.788
rfoot -8.22092 -14.402
rtoes -4.14305
lfemur -27.9098 4.35766 -6.52816
ltibia 25.2578
lfoot -8.94849 1.00049
ltoes -23.4426
97
root -6.66605 17.8667 0.196429 -120.377 85.0261 -137.019
lowerback 2.44771 1.71631 -1.62759
upperback 4.22737 2.34408 5.01485
thorax 2.71921 1.11337 6.12306
lowerneck -14.1351 -3.31702 1.14109
upperneck 41.214 -1.83162 -3.13967
head 17.4783 -0.32717 -1.77232
rclavicle 2.14687e-014 -1.11319e-014
rhumerus -6.78482 -1.29536 -98.9401
rradius 22.3293
rwrist -41.662
rhand -9.62018 -5.74125
rfingers 7.12502
rthumb 16.3494 -35.0721
lclavicle 2.14687e-014 -1.11319e-014
lhumerus -14.0762 -53.2834 112.498
lradius 32.2332
lwrist 44.4271
lhand -2.71512 68.0551
lfingers 7.12502
lthumb -157.013 83.2956
rfemur -26.015 -1.24626 11.1072
rtibia 24.8062
rfoot -8.29117 -14.4486
rtoes -3.50451
lfemur -27.9462 4.32328 -6.53691
ltibia 25.2659
lfoot -8.92882 1.03282
ltoes -23.5939
98
root -6.66616 17.8666 0.195297 -120.598 85.0199 -137.244
lowerback 2.43693 1.6913 -1.66475
upperback 4.23277 2.3106 5.04256
thorax 2.73269 1.09501 6.17472
lowerneck -14.1371 -3.29802 1.12027
upperneck 41.2208 -1.78263 -3.16784
head 17.4848 -0.314305 -1.77291
rclavicle 5.56597e-015 -2.46493e-014
rhumerus -6.48168 -2.52399 -99.0219
rradius 21.7641
rwrist -40.3229
rhand -9.31624 -5.52452
rfingers 7.12502
rthumb 16.642 -34.8311
lclavicle 5.56597e-015 -2.46493e-014
lhumerus -13.9948 -53.0148 112.466
lradius 32.0395
lwrist 43.9466
lhand -1.80402 67.5146
lfingers 7.12502
lthumb -156.139 83.9476
rfemur -26.0226 -1.25107 11.0921
rtibia 24.825
rfoot -8.3497 -14.4531
rtoes -3.29656
lfemur -27.9603 4.2599 -6.53543
ltibia 25.2745
lfoot -8.95848 1.05562
ltoes -23.8455
99
root -6.66773 17.8654 0.192752 -121.018 84.9437 -137.659
lowerback 2.43875 1.6749 -1.57872
upperback 4.24812 2.28998 5.05709
thorax 2.75249 1.08694 6.14154
lowerneck -14.1596 -3.30173 1.1079
upperneck 41.2157 -1.78326 -3.1738
head 17.4879 -0.317738 -1.77392
rclavicle 1.03368e-014 1.03368e-014
rhumerus -6.13267 -3.93868 -99.0889
rradius 21.1966
rwrist -39.0142
rhand -9.14396 -5.29871
rfingers 7.12502
rthumb 16.8079 -34.5912
lclavicle 1.03368e-014 1.03368e-014
lhumerus -13.9874 -52.9977 112.497
lradius 32.0587
lwrist 44.1683
lhand -2.08917 67.6711
lfingers 7.12502
lthumb -156.412 83.7556
rfemur -26.0115 -1.33732 11.1349
rtibia 24.8343
rfoot -8.47595 -14.4397
rtoes -2.80345
lfemur -27.997 4.17598 -6.48895
ltibia 25.29
lfoot -8.97504 1.03984
ltoes -23.8181
100
root -6.66766 17.8642 0.192988 -120.623 84.9323 -137.289
lowerback 2.40844 1.69145 -1.54113
upperback 4.25178 2.31209 5.06014
thorax 2.77191 1.0987 6.12434
lowerneck -14.1787 -3.31614 1.05889
upperneck 41.2068 -1.80604 -3.13878
head 17.4888 -0.330518 -1.75342
rclavicle 0 -3.97569e-015
rhumerus -6.20623 -3.51293 -99.0474
rradius 21.4059
rwrist -39.7093
rhand -9.63181 -5.39517
rfingers 7.12502
rthumb 16.3382 -34.727
lclavicle 0 -3.97569e-015
lhumerus -14.0419 -53.1814 112.596
lradius 32.3185
lwrist 45.2803
lhand -3.61619 68.6852
lfingers 7.12502
lthumb -157.878 82.5605
rfemur -26.0429 -1.3112 11.159
rtibia 24.8348
rfoot -10.8236 -13.7748
rtoes 20.6993
lfemur -28.0219 4.19245 -6.45573
ltibia 25.3004
lfoot -8.95784 1.06023
ltoes -23.7515
101
root -6.66626 17.8644 0.19499 -119.559 85.0157 -136.22
lowerback 2.40554 1.73212 -1.60334
upperback 4.26018 2.36555 5.05341
thorax 2.7741 1.12339 6.15271
lowerneck -14.1808 -3.31544 1.02557
upperneck 41.199 -1.80918 -3.10591
head 17.4862 -0.333108 -1.73288
rclavicle -3.89618e-014 -5.56597e-015
rhumerus -6.52711 -1.91873 -98.9493
rradius 22.0547
rwrist -41.5204
rhand -10.4178 -5.70063
rfingers 7.12502
rthumb 15.5813 -35.093
lclavicle -3.89618e-014 -5.56597e-015
lhumerus -14.037 -53.1675 112.635
lradius 32.3697
lwrist 45.8497
lhand -4.56001 69.3833
lfingers 7.12502
lthumb -158.784 81.7577
rfemur -26.0585 -1.18997 11.1422
rtibia 24.8281
rfoot -8.81848 -14.3393
rtoes 2.31594
lfemur -27.9652 4.30109 -6.46991
ltibia 25.299
lfoot -8.95095 1.09359
ltoes -23.4665
102
root -6.66563 17.866 0.196077 -119.306 85.0773 -135.923
lowerback 2.45474 1.77944 -1.59941
upperback 4.27203 2.42841 4.98772
thorax 2.7538 1.15564 6.07855
lowerneck -14.1846 -3.32829 1.10578
upperneck 41.2093 -1.86394 -3.08244
head 17.4893 -0.338782 -1.74663
rclavicle 1.98785e-014 1.27222e-014
rhumerus -6.53342 -2.05912 -99.0074
rradius 22.0802
rwrist -41.5575
rhand -10.6758 -5.74391
rfingers 7.12502
rthumb 15.3328 -35.1555
lclavicle 1.98785e-014 1.27222e-014
lhumerus -14.0761 -53.2359 112.63
lradius 32.3066
lwrist 46.0467
lhand -4.89278 69.7961
lfingers 7.12502
lthumb -159.104 81.3094
rfemur -26.0205 -1.16186 11.1132
rtibia 24.8188
rfoot -11.0074 -13.5384
rtoes 24.1438
lfemur -27.8876 4.32473 -6.503
ltibia 25.2881
lfoot -8.97465 1.12299
ltoes -23.3809
103
root -6.66486 17.8674 0.195912 -119.622 85.0611 -136.248
lowerback 2.44327 1.78994 -1.53531
upperback 4.26353 2.44197 4.93008
thorax 2.75418 1.16455 5.98082
lowerneck -14.1948 -3.34653 1.19082
upperneck 41.2385 -1.91845 -3.07779
head 17.5044 -0.345351 -1.77036
rclavicle 1.59028e-015 -1.27222e-014
rhumerus -6.52221 -2.23023 -99.079
rradius 22.0684
rwrist -41.4367
rhand -10.8804 -5.82138
rfingers 7.12502
rthumb 15.1357 -35.2479
lclavicle 1.59028e-015 -1.27222e-014
lhumerus -14.1454 -53.3927 112.627
lradius 32.2765
lwrist 46.9308
lhand -5.64237 70.436
lfingers 7.12502
lthumb -159.824 80.5918
rfemur -26.0173 -1.18079 11.107
rtibia 24.8122
rfoot -10.9678 -13.6181
rtoes 22.7092
lfemur -27.8934 4.29233 -6.504
ltibia 25.2642
lfoot -8.98771 1.15058
ltoes -23.854
104
root -6.66357 17.8674 0.195234 -119.572 85.0388 -136.231
lowerback 2.41732 1.77582 -1.49814
upperback 4.2438 2.42281 4.91716
thorax 2.75222 1.15617 5.94643
lowerneck -14.1931 -3.35039 1.18295
upperneck 41.2545 -1.92465 -3.06616
head 17.5134 -0.34693 -1.76509
rclavicle 3.18055e-015 -4.77083e-014
rhumerus -6.55031 -2.13361 -99.1206
rradius 22.066
rwrist -41.4053
rhand -11.1978 -5.95255
rfingers 7.12502
rthumb 14.8299 -35.4019
lclavicle 3.18055e-015 -4.77083e-014
lhumerus -14.1156 -53.4148 112.582
lradius 32.1587
lwrist 47.9418
lhand -6.55073 71.0858
lfingers 7.12502
lthumb -160.697 79.8522
rfemur -26.0427 -1.15313 11.1159
rtibia 24.8124
rfoot -11.0056 -13.6589
rtoes 22.9139
lfemur -27.9167 4.3362 -6.50356
ltibia 25.2301
lfoot -8.94613 1.13516
ltoes -23.8716
105
root -6.66224 17.8663 0.195688 -119.295 85.0812 -135.944
lowerback 2.46528 1.7883 -1.44999
upperback 4.21549 2.43948 4.85356
thorax 2.69789 1.16744 5.84847
lowerneck -14.1818 -3.34472 1.16741
upperneck 41.2885 -1.93461 -2.99445
head 17.5314 -0.341741 -1.73159
rclavicle 1.35174e-014 1.11319e-014
rhumerus -6.62649 -2.03267 -99.2148
rradius 22.0468
rwrist -41.4496
rhand -11.4467 -5.94798
rfingers 7.12502
rthumb 14.5902 -35.4148
lclavicle 1.35174e-014 1.11319e-014
lhumerus -14.2309 -53.5711 112.613
lradius 32.2778
lwrist 48.9201
lhand -8.01051 71.5888
lfingers 7.12502
lthumb -162.101 79.2149
rfemur -26.0448 -1.21969 11.1195
rtibia 24.8149
rfoot -10.5913 -13.715
rtoes 20.4427
lfemur -27.8884 4.39457 -6.54205
ltibia 25.2106
lfoot -8.88506 1.15278
ltoes -24.1622
